<?xml version="1.0" encoding="iso-8859-1"?>
<!-- Generator: Adobe Illustrator 16.0.0, SVG Export Plug-In . SVG Version: 6.00 Build 0)  -->
<!DOCTYPE svg PUBLIC "-//W3C//DTD SVG 1.1//EN" "http://www.w3.org/Graphics/SVG/1.1/DTD/svg11.dtd">
<svg version="1.1" id="Capa_1" xmlns="http://www.w3.org/2000/svg" xmlns:xlink="http://www.w3.org/1999/xlink" x="0px" y="0px"
	 width="32.001px" height="32.001px" viewBox="0 0 32.001 32.001" style="enable-background:new 0 0 32.001 32.001;"
	 xml:space="preserve">
<g>
	<path d="M22.236,27.723c-0.747,0-1.457-0.185-2.122-0.556c-1.829-1.019-2.985-3.319-3.791-5.688
		c-1.562,3.011-4.528,7.315-8.23,5.967C7.221,27.129,5.78,26.154,5.94,23.2c0.063-1.158,0.372-2.45,0.85-3.627
		c-2.252-1.797-6.164-5.505-6.72-9.185c-0.252-1.672,0.178-3.163,1.28-4.431c1.183-1.422,2.792-1.96,4.641-1.54
		c3.617,0.822,7.747,5.485,9.819,9.108c1.964-2.809,6.565-7.721,10.595-8.58c1.809-0.386,3.379,0.075,4.534,1.336
		c0.694,0.758,1.41,2.134,0.875,4.386c-0.761,3.198-3.735,6.93-5.837,8.943c0.452,1.241,0.688,2.596,0.63,3.741
		c-0.105,2.107-1.091,3.567-2.773,4.107C23.285,27.635,22.752,27.723,22.236,27.723z M16.857,15.732
		c0.07,0.201,0.13,0.393,0.175,0.57l0.163,0.655c0.67,2.701,1.792,7.224,3.922,8.409c0.612,0.343,1.295,0.384,2.086,0.13
		c0.832-0.267,1.284-1.023,1.346-2.251c0.038-0.758-0.076-1.545-0.28-2.274c-0.053,0.027-0.102,0.05-0.146,0.065
		c-1.188,0.449-3.139,0.037-3.975-1.186c-0.315-0.462-0.896-1.702,0.51-3.267c0.743-0.764,1.677-0.957,2.587-0.56
		c0.664,0.289,1.264,0.879,1.768,1.635c1.786-1.859,4.378-5.129,4.857-7.762c0.178-0.975,0.031-1.703-0.45-2.228
		c-0.662-0.721-1.481-0.947-2.586-0.713C22.734,7.835,17.356,14.505,16.857,15.732z M8.524,20.804
		c-0.211,0.595-0.382,1.249-0.474,1.938c-0.075,0.559-0.243,2.407,0.747,2.768c2.721,0.989,5.658-4.606,6.651-7.043
		c-0.089-0.352-0.173-0.688-0.253-1.013l-0.162-0.647c-0.704-2.797-5.652-9.507-9.5-10.381C4.447,6.178,3.616,6.454,2.919,7.292
		c-0.711,0.819-0.972,1.726-0.812,2.789c0.431,2.851,3.651,5.97,5.656,7.624c0.647-0.969,1.418-1.679,2.232-1.88
		c0.458-0.112,1.611-0.222,2.459,1.198c0.014,0.022,0.026,0.048,0.039,0.072c0.794,1.611,0.28,2.858-0.466,3.487
		C11.105,21.363,9.694,21.436,8.524,20.804z M9.414,18.94c0.488,0.306,1.035,0.279,1.285,0.068c0.267-0.225,0.079-0.724-0.035-0.965
		c-0.098-0.157-0.174-0.219-0.196-0.229C10.256,17.838,9.844,18.255,9.414,18.94z M22.325,17.885c-0.042,0-0.084,0.028-0.163,0.109
		c-0.052,0.059-0.44,0.508-0.312,0.695c0.239,0.352,1.164,0.562,1.545,0.421c0.021-0.013,0.048-0.025,0.075-0.044
		c-0.348-0.59-0.727-1.012-1.049-1.152C22.383,17.898,22.354,17.885,22.325,17.885z"/>
</g>
<g>
</g>
<g>
</g>
<g>
</g>
<g>
</g>
<g>
</g>
<g>
</g>
<g>
</g>
<g>
</g>
<g>
</g>
<g>
</g>
<g>
</g>
<g>
</g>
<g>
</g>
<g>
</g>
<g>
</g>
</svg>
